%TF.GenerationSoftware,KiCad,Pcbnew,8.0.5*%
%TF.CreationDate,2024-10-08T01:44:58-07:00*%
%TF.ProjectId,Lab06,4c616230-362e-46b6-9963-61645f706362,rev?*%
%TF.SameCoordinates,Original*%
%TF.FileFunction,Soldermask,Bot*%
%TF.FilePolarity,Negative*%
%FSLAX46Y46*%
G04 Gerber Fmt 4.6, Leading zero omitted, Abs format (unit mm)*
G04 Created by KiCad (PCBNEW 8.0.5) date 2024-10-08 01:44:58*
%MOMM*%
%LPD*%
G01*
G04 APERTURE LIST*
G04 Aperture macros list*
%AMRoundRect*
0 Rectangle with rounded corners*
0 $1 Rounding radius*
0 $2 $3 $4 $5 $6 $7 $8 $9 X,Y pos of 4 corners*
0 Add a 4 corners polygon primitive as box body*
4,1,4,$2,$3,$4,$5,$6,$7,$8,$9,$2,$3,0*
0 Add four circle primitives for the rounded corners*
1,1,$1+$1,$2,$3*
1,1,$1+$1,$4,$5*
1,1,$1+$1,$6,$7*
1,1,$1+$1,$8,$9*
0 Add four rect primitives between the rounded corners*
20,1,$1+$1,$2,$3,$4,$5,0*
20,1,$1+$1,$4,$5,$6,$7,0*
20,1,$1+$1,$6,$7,$8,$9,0*
20,1,$1+$1,$8,$9,$2,$3,0*%
G04 Aperture macros list end*
%ADD10C,1.400000*%
%ADD11O,1.400000X1.400000*%
%ADD12RoundRect,0.102000X0.695000X-0.695000X0.695000X0.695000X-0.695000X0.695000X-0.695000X-0.695000X0*%
%ADD13C,1.594000*%
%ADD14C,1.800000*%
%ADD15R,1.800000X1.800000*%
%ADD16C,1.604000*%
%ADD17RoundRect,0.102000X-0.700000X0.700000X-0.700000X-0.700000X0.700000X-0.700000X0.700000X0.700000X0*%
%ADD18RoundRect,0.102000X0.654000X-0.654000X0.654000X0.654000X-0.654000X0.654000X-0.654000X-0.654000X0*%
%ADD19C,1.512000*%
G04 APERTURE END LIST*
D10*
%TO.C,R1*%
X127508000Y-105156000D03*
D11*
X127508000Y-110236000D03*
%TD*%
D12*
%TO.C,J3*%
X151638000Y-78740000D03*
D13*
X154178000Y-78740000D03*
X151638000Y-81280000D03*
X154178000Y-81280000D03*
X151638000Y-83820000D03*
X154178000Y-83820000D03*
X151638000Y-86360000D03*
X154178000Y-86360000D03*
X151638000Y-88900000D03*
X154178000Y-88900000D03*
X151638000Y-91440000D03*
X154178000Y-91440000D03*
X151638000Y-93980000D03*
X154178000Y-93980000D03*
X151638000Y-96520000D03*
X154178000Y-96520000D03*
X151638000Y-99060000D03*
X154178000Y-99060000D03*
X151638000Y-101600000D03*
X154178000Y-101600000D03*
X151638000Y-104140000D03*
X154178000Y-104140000D03*
X151638000Y-106680000D03*
X154178000Y-106680000D03*
X151638000Y-109220000D03*
X154178000Y-109220000D03*
%TD*%
D14*
%TO.C,D1*%
X139192000Y-108204000D03*
D15*
X136652000Y-108204000D03*
%TD*%
D16*
%TO.C,U1*%
X134620000Y-77978000D03*
X134620000Y-80518000D03*
X134620000Y-83058000D03*
X134620000Y-85598000D03*
X134620000Y-88138000D03*
X134620000Y-90678000D03*
X134620000Y-93218000D03*
X134620000Y-95758000D03*
X127000000Y-95758000D03*
X127000000Y-93218000D03*
X127000000Y-90678000D03*
X127000000Y-88138000D03*
X127000000Y-85598000D03*
X127000000Y-83058000D03*
X127000000Y-80518000D03*
D17*
X127000000Y-77978000D03*
%TD*%
D18*
%TO.C,J1*%
X116078000Y-89820000D03*
D19*
X116078000Y-87820000D03*
X116078000Y-85820000D03*
X116078000Y-83820000D03*
%TD*%
D18*
%TO.C,J2*%
X115570000Y-108870000D03*
D19*
X115570000Y-106870000D03*
X115570000Y-104870000D03*
X115570000Y-102870000D03*
%TD*%
M02*
