%TF.GenerationSoftware,KiCad,Pcbnew,8.0.5*%
%TF.CreationDate,2024-10-08T01:44:58-07:00*%
%TF.ProjectId,Lab06,4c616230-362e-46b6-9963-61645f706362,rev?*%
%TF.SameCoordinates,Original*%
%TF.FileFunction,Legend,Bot*%
%TF.FilePolarity,Positive*%
%FSLAX46Y46*%
G04 Gerber Fmt 4.6, Leading zero omitted, Abs format (unit mm)*
G04 Created by KiCad (PCBNEW 8.0.5) date 2024-10-08 01:44:58*
%MOMM*%
%LPD*%
G01*
G04 APERTURE LIST*
%ADD10C,0.150000*%
%ADD11C,0.200000*%
G04 APERTURE END LIST*
D10*
X156724319Y-108236666D02*
X157438604Y-108236666D01*
X157438604Y-108236666D02*
X157581461Y-108189047D01*
X157581461Y-108189047D02*
X157676700Y-108093809D01*
X157676700Y-108093809D02*
X157724319Y-107950952D01*
X157724319Y-107950952D02*
X157724319Y-107855714D01*
X156724319Y-108617619D02*
X156724319Y-109236666D01*
X156724319Y-109236666D02*
X157105271Y-108903333D01*
X157105271Y-108903333D02*
X157105271Y-109046190D01*
X157105271Y-109046190D02*
X157152890Y-109141428D01*
X157152890Y-109141428D02*
X157200509Y-109189047D01*
X157200509Y-109189047D02*
X157295747Y-109236666D01*
X157295747Y-109236666D02*
X157533842Y-109236666D01*
X157533842Y-109236666D02*
X157629080Y-109189047D01*
X157629080Y-109189047D02*
X157676700Y-109141428D01*
X157676700Y-109141428D02*
X157724319Y-109046190D01*
X157724319Y-109046190D02*
X157724319Y-108760476D01*
X157724319Y-108760476D02*
X157676700Y-108665238D01*
X157676700Y-108665238D02*
X157629080Y-108617619D01*
D11*
%TO.C,J3*%
X155384500Y-110745000D02*
X150431500Y-110745000D01*
X155384500Y-110745000D02*
X155384500Y-77215000D01*
X150431500Y-77215000D02*
X155384500Y-77215000D01*
X150431500Y-110745000D02*
X150431500Y-77215000D01*
X151738000Y-76565000D02*
G75*
G02*
X151538000Y-76565000I-100000J0D01*
G01*
X151538000Y-76565000D02*
G75*
G02*
X151738000Y-76565000I100000J0D01*
G01*
%TD*%
M02*
