%TF.GenerationSoftware,KiCad,Pcbnew,8.0.5*%
%TF.CreationDate,2024-10-08T01:44:58-07:00*%
%TF.ProjectId,Lab06,4c616230-362e-46b6-9963-61645f706362,rev?*%
%TF.SameCoordinates,Original*%
%TF.FileFunction,Legend,Top*%
%TF.FilePolarity,Positive*%
%FSLAX46Y46*%
G04 Gerber Fmt 4.6, Leading zero omitted, Abs format (unit mm)*
G04 Created by KiCad (PCBNEW 8.0.5) date 2024-10-08 01:44:58*
%MOMM*%
%LPD*%
G01*
G04 APERTURE LIST*
%ADD10C,0.100000*%
%ADD11C,0.150000*%
%ADD12C,0.120000*%
%ADD13C,0.127000*%
%ADD14C,0.200000*%
G04 APERTURE END LIST*
D10*
X146353884Y-116458419D02*
X146353884Y-115458419D01*
X146925312Y-116458419D02*
X146496741Y-115886990D01*
X146925312Y-115458419D02*
X146353884Y-116029847D01*
X147258646Y-115791752D02*
X147496741Y-116458419D01*
X147734836Y-115791752D02*
X147496741Y-116458419D01*
X147496741Y-116458419D02*
X147401503Y-116696514D01*
X147401503Y-116696514D02*
X147353884Y-116744133D01*
X147353884Y-116744133D02*
X147258646Y-116791752D01*
X148115789Y-116458419D02*
X148115789Y-115791752D01*
X148115789Y-115982228D02*
X148163408Y-115886990D01*
X148163408Y-115886990D02*
X148211027Y-115839371D01*
X148211027Y-115839371D02*
X148306265Y-115791752D01*
X148306265Y-115791752D02*
X148401503Y-115791752D01*
X149163408Y-116458419D02*
X149163408Y-115934609D01*
X149163408Y-115934609D02*
X149115789Y-115839371D01*
X149115789Y-115839371D02*
X149020551Y-115791752D01*
X149020551Y-115791752D02*
X148830075Y-115791752D01*
X148830075Y-115791752D02*
X148734837Y-115839371D01*
X149163408Y-116410800D02*
X149068170Y-116458419D01*
X149068170Y-116458419D02*
X148830075Y-116458419D01*
X148830075Y-116458419D02*
X148734837Y-116410800D01*
X148734837Y-116410800D02*
X148687218Y-116315561D01*
X148687218Y-116315561D02*
X148687218Y-116220323D01*
X148687218Y-116220323D02*
X148734837Y-116125085D01*
X148734837Y-116125085D02*
X148830075Y-116077466D01*
X148830075Y-116077466D02*
X149068170Y-116077466D01*
X149068170Y-116077466D02*
X149163408Y-116029847D01*
X150353885Y-116410800D02*
X150496742Y-116458419D01*
X150496742Y-116458419D02*
X150734837Y-116458419D01*
X150734837Y-116458419D02*
X150830075Y-116410800D01*
X150830075Y-116410800D02*
X150877694Y-116363180D01*
X150877694Y-116363180D02*
X150925313Y-116267942D01*
X150925313Y-116267942D02*
X150925313Y-116172704D01*
X150925313Y-116172704D02*
X150877694Y-116077466D01*
X150877694Y-116077466D02*
X150830075Y-116029847D01*
X150830075Y-116029847D02*
X150734837Y-115982228D01*
X150734837Y-115982228D02*
X150544361Y-115934609D01*
X150544361Y-115934609D02*
X150449123Y-115886990D01*
X150449123Y-115886990D02*
X150401504Y-115839371D01*
X150401504Y-115839371D02*
X150353885Y-115744133D01*
X150353885Y-115744133D02*
X150353885Y-115648895D01*
X150353885Y-115648895D02*
X150401504Y-115553657D01*
X150401504Y-115553657D02*
X150449123Y-115506038D01*
X150449123Y-115506038D02*
X150544361Y-115458419D01*
X150544361Y-115458419D02*
X150782456Y-115458419D01*
X150782456Y-115458419D02*
X150925313Y-115506038D01*
X151353885Y-116458419D02*
X151353885Y-115458419D01*
X151782456Y-116458419D02*
X151782456Y-115934609D01*
X151782456Y-115934609D02*
X151734837Y-115839371D01*
X151734837Y-115839371D02*
X151639599Y-115791752D01*
X151639599Y-115791752D02*
X151496742Y-115791752D01*
X151496742Y-115791752D02*
X151401504Y-115839371D01*
X151401504Y-115839371D02*
X151353885Y-115886990D01*
X152258647Y-116458419D02*
X152258647Y-115791752D01*
X152258647Y-115458419D02*
X152211028Y-115506038D01*
X152211028Y-115506038D02*
X152258647Y-115553657D01*
X152258647Y-115553657D02*
X152306266Y-115506038D01*
X152306266Y-115506038D02*
X152258647Y-115458419D01*
X152258647Y-115458419D02*
X152258647Y-115553657D01*
D11*
X129882819Y-107862666D02*
X129406628Y-108195999D01*
X129882819Y-108434094D02*
X128882819Y-108434094D01*
X128882819Y-108434094D02*
X128882819Y-108053142D01*
X128882819Y-108053142D02*
X128930438Y-107957904D01*
X128930438Y-107957904D02*
X128978057Y-107910285D01*
X128978057Y-107910285D02*
X129073295Y-107862666D01*
X129073295Y-107862666D02*
X129216152Y-107862666D01*
X129216152Y-107862666D02*
X129311390Y-107910285D01*
X129311390Y-107910285D02*
X129359009Y-107957904D01*
X129359009Y-107957904D02*
X129406628Y-108053142D01*
X129406628Y-108053142D02*
X129406628Y-108434094D01*
X129882819Y-106910285D02*
X129882819Y-107481713D01*
X129882819Y-107195999D02*
X128882819Y-107195999D01*
X128882819Y-107195999D02*
X129025676Y-107291237D01*
X129025676Y-107291237D02*
X129120914Y-107386475D01*
X129120914Y-107386475D02*
X129168533Y-107481713D01*
X137183905Y-104698819D02*
X137183905Y-103698819D01*
X137183905Y-103698819D02*
X137422000Y-103698819D01*
X137422000Y-103698819D02*
X137564857Y-103746438D01*
X137564857Y-103746438D02*
X137660095Y-103841676D01*
X137660095Y-103841676D02*
X137707714Y-103936914D01*
X137707714Y-103936914D02*
X137755333Y-104127390D01*
X137755333Y-104127390D02*
X137755333Y-104270247D01*
X137755333Y-104270247D02*
X137707714Y-104460723D01*
X137707714Y-104460723D02*
X137660095Y-104555961D01*
X137660095Y-104555961D02*
X137564857Y-104651200D01*
X137564857Y-104651200D02*
X137422000Y-104698819D01*
X137422000Y-104698819D02*
X137183905Y-104698819D01*
X138707714Y-104698819D02*
X138136286Y-104698819D01*
X138422000Y-104698819D02*
X138422000Y-103698819D01*
X138422000Y-103698819D02*
X138326762Y-103841676D01*
X138326762Y-103841676D02*
X138231524Y-103936914D01*
X138231524Y-103936914D02*
X138136286Y-103984533D01*
X136591292Y-88990945D02*
X137158523Y-88990945D01*
X137158523Y-88990945D02*
X137225256Y-88957578D01*
X137225256Y-88957578D02*
X137258623Y-88924212D01*
X137258623Y-88924212D02*
X137291989Y-88857479D01*
X137291989Y-88857479D02*
X137291989Y-88724013D01*
X137291989Y-88724013D02*
X137258623Y-88657280D01*
X137258623Y-88657280D02*
X137225256Y-88623913D01*
X137225256Y-88623913D02*
X137158523Y-88590547D01*
X137158523Y-88590547D02*
X136591292Y-88590547D01*
X137291989Y-87889849D02*
X137291989Y-88290247D01*
X137291989Y-88090048D02*
X136591292Y-88090048D01*
X136591292Y-88090048D02*
X136691392Y-88156781D01*
X136691392Y-88156781D02*
X136758125Y-88223514D01*
X136758125Y-88223514D02*
X136791491Y-88290247D01*
X112047819Y-88978333D02*
X112762104Y-88978333D01*
X112762104Y-88978333D02*
X112904961Y-89025952D01*
X112904961Y-89025952D02*
X113000200Y-89121190D01*
X113000200Y-89121190D02*
X113047819Y-89264047D01*
X113047819Y-89264047D02*
X113047819Y-89359285D01*
X113047819Y-87978333D02*
X113047819Y-88549761D01*
X113047819Y-88264047D02*
X112047819Y-88264047D01*
X112047819Y-88264047D02*
X112190676Y-88359285D01*
X112190676Y-88359285D02*
X112285914Y-88454523D01*
X112285914Y-88454523D02*
X112333533Y-88549761D01*
X111539819Y-108028333D02*
X112254104Y-108028333D01*
X112254104Y-108028333D02*
X112396961Y-108075952D01*
X112396961Y-108075952D02*
X112492200Y-108171190D01*
X112492200Y-108171190D02*
X112539819Y-108314047D01*
X112539819Y-108314047D02*
X112539819Y-108409285D01*
X111635057Y-107599761D02*
X111587438Y-107552142D01*
X111587438Y-107552142D02*
X111539819Y-107456904D01*
X111539819Y-107456904D02*
X111539819Y-107218809D01*
X111539819Y-107218809D02*
X111587438Y-107123571D01*
X111587438Y-107123571D02*
X111635057Y-107075952D01*
X111635057Y-107075952D02*
X111730295Y-107028333D01*
X111730295Y-107028333D02*
X111825533Y-107028333D01*
X111825533Y-107028333D02*
X111968390Y-107075952D01*
X111968390Y-107075952D02*
X112539819Y-107647380D01*
X112539819Y-107647380D02*
X112539819Y-107028333D01*
D12*
%TO.C,R1*%
X128428000Y-105776000D02*
X128428000Y-109616000D01*
X126588000Y-105776000D02*
X126588000Y-109616000D01*
%TO.C,D1*%
X140422000Y-108204000D02*
G75*
G02*
X135422000Y-108204000I-2500000J0D01*
G01*
X135422000Y-108204000D02*
G75*
G02*
X140422000Y-108204000I2500000J0D01*
G01*
X140912000Y-108203538D02*
G75*
G02*
X135362000Y-109748830I-2990000J-462D01*
G01*
X135362000Y-106659170D02*
G75*
G02*
X140912000Y-108204462I2560000J-1544830D01*
G01*
X135362000Y-106659000D02*
X135362000Y-109749000D01*
D13*
%TO.C,U1*%
X130760000Y-77978000D02*
G75*
G02*
X129540000Y-76758000I1J1220001D01*
G01*
X132080000Y-76758000D02*
G75*
G02*
X130860000Y-77978000I-1220001J1D01*
G01*
X127635000Y-76758000D02*
X127635000Y-77068000D01*
X127635000Y-76758000D02*
X129540000Y-76758000D01*
X132080000Y-76758000D02*
X133985000Y-76758000D01*
X133985000Y-76758000D02*
X133985000Y-77343000D01*
%TO.C,J1*%
X113928000Y-91820000D02*
X113928000Y-81820000D01*
X119028000Y-91820000D02*
X113928000Y-91820000D01*
X113928000Y-81820000D02*
X119028000Y-81820000D01*
X119028000Y-81820000D02*
X119028000Y-91820000D01*
D14*
X116178000Y-92620000D02*
G75*
G02*
X115978000Y-92620000I-100000J0D01*
G01*
X115978000Y-92620000D02*
G75*
G02*
X116178000Y-92620000I100000J0D01*
G01*
D13*
%TO.C,J2*%
X113420000Y-110870000D02*
X113420000Y-100870000D01*
X118520000Y-110870000D02*
X113420000Y-110870000D01*
X113420000Y-100870000D02*
X118520000Y-100870000D01*
X118520000Y-100870000D02*
X118520000Y-110870000D01*
D14*
X115670000Y-111670000D02*
G75*
G02*
X115470000Y-111670000I-100000J0D01*
G01*
X115470000Y-111670000D02*
G75*
G02*
X115670000Y-111670000I100000J0D01*
G01*
%TD*%
M02*
