%TF.GenerationSoftware,KiCad,Pcbnew,8.0.5*%
%TF.CreationDate,2024-10-08T01:44:57-07:00*%
%TF.ProjectId,Lab06,4c616230-362e-46b6-9963-61645f706362,rev?*%
%TF.SameCoordinates,Original*%
%TF.FileFunction,Copper,L1,Top*%
%TF.FilePolarity,Positive*%
%FSLAX46Y46*%
G04 Gerber Fmt 4.6, Leading zero omitted, Abs format (unit mm)*
G04 Created by KiCad (PCBNEW 8.0.5) date 2024-10-08 01:44:57*
%MOMM*%
%LPD*%
G01*
G04 APERTURE LIST*
%TA.AperFunction,ComponentPad*%
%ADD10C,1.400000*%
%TD*%
%TA.AperFunction,ComponentPad*%
%ADD11O,1.400000X1.400000*%
%TD*%
%TA.AperFunction,ComponentPad*%
%ADD12R,1.390000X1.390000*%
%TD*%
%TA.AperFunction,ComponentPad*%
%ADD13C,1.390000*%
%TD*%
%TA.AperFunction,ComponentPad*%
%ADD14C,1.800000*%
%TD*%
%TA.AperFunction,ComponentPad*%
%ADD15R,1.800000X1.800000*%
%TD*%
%TA.AperFunction,ComponentPad*%
%ADD16R,1.400000X1.400000*%
%TD*%
%TA.AperFunction,ComponentPad*%
%ADD17R,1.308000X1.308000*%
%TD*%
%TA.AperFunction,ComponentPad*%
%ADD18C,1.308000*%
%TD*%
%TA.AperFunction,Conductor*%
%ADD19C,0.200000*%
%TD*%
G04 APERTURE END LIST*
D10*
%TO.P,R1,1*%
%TO.N,Net-(U1-AGND)*%
X127508000Y-105156000D03*
D11*
%TO.P,R1,2*%
%TO.N,Net-(D1-K)*%
X127508000Y-110236000D03*
%TD*%
D12*
%TO.P,J3,01,01*%
%TO.N,+5V*%
X151638000Y-78740000D03*
D13*
%TO.P,J3,02,02*%
%TO.N,unconnected-(J3-Pad02)*%
X154178000Y-78740000D03*
%TO.P,J3,03,03*%
%TO.N,unconnected-(J3-Pad03)*%
X151638000Y-81280000D03*
%TO.P,J3,04,04*%
%TO.N,unconnected-(J3-Pad04)*%
X154178000Y-81280000D03*
%TO.P,J3,05,05*%
%TO.N,unconnected-(J3-Pad05)*%
X151638000Y-83820000D03*
%TO.P,J3,06,06*%
%TO.N,Net-(U1-AGND)*%
X154178000Y-83820000D03*
%TO.P,J3,07,07*%
%TO.N,unconnected-(J3-Pad07)*%
X151638000Y-86360000D03*
%TO.P,J3,08,08*%
%TO.N,unconnected-(J3-Pad08)*%
X154178000Y-86360000D03*
%TO.P,J3,09,09*%
%TO.N,unconnected-(J3-Pad09)*%
X151638000Y-88900000D03*
%TO.P,J3,10,10*%
%TO.N,unconnected-(J3-Pad10)*%
X154178000Y-88900000D03*
%TO.P,J3,11,11*%
%TO.N,Net-(D1-A)*%
X151638000Y-91440000D03*
%TO.P,J3,12,12*%
%TO.N,unconnected-(J3-Pad12)*%
X154178000Y-91440000D03*
%TO.P,J3,13,13*%
%TO.N,unconnected-(J3-Pad13)*%
X151638000Y-93980000D03*
%TO.P,J3,14,14*%
%TO.N,unconnected-(J3-Pad14)*%
X154178000Y-93980000D03*
%TO.P,J3,15,15*%
%TO.N,unconnected-(J3-Pad15)*%
X151638000Y-96520000D03*
%TO.P,J3,16,16*%
%TO.N,unconnected-(J3-Pad16)*%
X154178000Y-96520000D03*
%TO.P,J3,17,17*%
%TO.N,unconnected-(J3-Pad17)*%
X151638000Y-99060000D03*
%TO.P,J3,18,18*%
%TO.N,unconnected-(J3-Pad18)*%
X154178000Y-99060000D03*
%TO.P,J3,19,19*%
%TO.N,Net-(U1-DIN)*%
X151638000Y-101600000D03*
%TO.P,J3,20,20*%
%TO.N,unconnected-(J3-Pad20)*%
X154178000Y-101600000D03*
%TO.P,J3,21,21*%
%TO.N,Net-(U1-DOUT)*%
X151638000Y-104140000D03*
%TO.P,J3,22,22*%
%TO.N,unconnected-(J3-Pad22)*%
X154178000Y-104140000D03*
%TO.P,J3,23,23*%
%TO.N,Net-(U1-CLK)*%
X151638000Y-106680000D03*
%TO.P,J3,24,24*%
%TO.N,Net-(U1-SHDN{slash}~{CS})*%
X154178000Y-106680000D03*
%TO.P,J3,25,25*%
%TO.N,unconnected-(J3-Pad25)*%
X151638000Y-109220000D03*
%TO.P,J3,26,26*%
%TO.N,unconnected-(J3-Pad26)*%
X154178000Y-109220000D03*
%TD*%
D14*
%TO.P,D1,2,A*%
%TO.N,Net-(D1-A)*%
X139192000Y-108204000D03*
D15*
%TO.P,D1,1,K*%
%TO.N,Net-(D1-K)*%
X136652000Y-108204000D03*
%TD*%
D10*
%TO.P,U1,16,VDD*%
%TO.N,+5V*%
X134620000Y-77978000D03*
%TO.P,U1,15,VREF*%
X134620000Y-80518000D03*
%TO.P,U1,14,AGND*%
%TO.N,Net-(U1-AGND)*%
X134620000Y-83058000D03*
%TO.P,U1,13,CLK*%
%TO.N,Net-(U1-CLK)*%
X134620000Y-85598000D03*
%TO.P,U1,12,DOUT*%
%TO.N,Net-(U1-DOUT)*%
X134620000Y-88138000D03*
%TO.P,U1,11,DIN*%
%TO.N,Net-(U1-DIN)*%
X134620000Y-90678000D03*
%TO.P,U1,10,SHDN/~{CS}*%
%TO.N,Net-(U1-SHDN{slash}~{CS})*%
X134620000Y-93218000D03*
%TO.P,U1,9,DGND*%
%TO.N,Net-(U1-AGND)*%
X134620000Y-95758000D03*
%TO.P,U1,8,CH7*%
%TO.N,unconnected-(U1-CH7-Pad8)*%
X127000000Y-95758000D03*
%TO.P,U1,7,CH6*%
%TO.N,unconnected-(U1-CH6-Pad7)*%
X127000000Y-93218000D03*
%TO.P,U1,6,CH5*%
%TO.N,unconnected-(U1-CH5-Pad6)*%
X127000000Y-90678000D03*
%TO.P,U1,5,CH4*%
%TO.N,unconnected-(U1-CH4-Pad5)*%
X127000000Y-88138000D03*
%TO.P,U1,4,CH3*%
%TO.N,unconnected-(U1-CH3-Pad4)*%
X127000000Y-85598000D03*
%TO.P,U1,3,CH2*%
%TO.N,unconnected-(U1-CH2-Pad3)*%
X127000000Y-83058000D03*
%TO.P,U1,2,CH1*%
%TO.N,Net-(U1-CH1)*%
X127000000Y-80518000D03*
D16*
%TO.P,U1,1,CH0*%
%TO.N,Net-(U1-CH0)*%
X127000000Y-77978000D03*
%TD*%
D17*
%TO.P,J1,1,1*%
%TO.N,Net-(U1-CH0)*%
X116078000Y-89820000D03*
D18*
%TO.P,J1,2,2*%
%TO.N,unconnected-(J1-Pad2)*%
X116078000Y-87820000D03*
%TO.P,J1,3,3*%
%TO.N,+5V*%
X116078000Y-85820000D03*
%TO.P,J1,4,4*%
%TO.N,Net-(U1-AGND)*%
X116078000Y-83820000D03*
%TD*%
D17*
%TO.P,J2,1,1*%
%TO.N,Net-(U1-CH1)*%
X115570000Y-108870000D03*
D18*
%TO.P,J2,2,2*%
%TO.N,unconnected-(J2-Pad2)*%
X115570000Y-106870000D03*
%TO.P,J2,3,3*%
%TO.N,+5V*%
X115570000Y-104870000D03*
%TO.P,J2,4,4*%
%TO.N,Net-(U1-AGND)*%
X115570000Y-102870000D03*
%TD*%
D19*
%TO.N,Net-(U1-AGND)*%
X127508000Y-102870000D02*
X133350000Y-97028000D01*
X134620000Y-83058000D02*
X133350000Y-84328000D01*
X133350000Y-97028000D02*
X134620000Y-95758000D01*
X133350000Y-84328000D02*
X133350000Y-97028000D01*
%TO.N,Net-(D1-K)*%
X127508000Y-110236000D02*
X127762000Y-110236000D01*
X127762000Y-110236000D02*
X129794000Y-108204000D01*
X129794000Y-108204000D02*
X136652000Y-108204000D01*
%TO.N,Net-(U1-AGND)*%
X115570000Y-102870000D02*
X127508000Y-102870000D01*
%TO.N,+5V*%
X116078000Y-85820000D02*
X115124000Y-84866000D01*
X115124000Y-84866000D02*
X115124000Y-83250000D01*
X133620000Y-79518000D02*
X134620000Y-80518000D01*
X115124000Y-83250000D02*
X118856000Y-79518000D01*
X118856000Y-79518000D02*
X133620000Y-79518000D01*
%TO.N,Net-(U1-AGND)*%
X116078000Y-83820000D02*
X117840000Y-82058000D01*
X117840000Y-82058000D02*
X133620000Y-82058000D01*
X133620000Y-82058000D02*
X134620000Y-83058000D01*
%TO.N,+5V*%
X134620000Y-77978000D02*
X134620000Y-80518000D01*
%TO.N,Net-(U1-AGND)*%
X134620000Y-83058000D02*
X134853000Y-82825000D01*
X134853000Y-82825000D02*
X153183000Y-82825000D01*
X153183000Y-82825000D02*
X154178000Y-83820000D01*
%TO.N,+5V*%
X134620000Y-77978000D02*
X150876000Y-77978000D01*
X150876000Y-77978000D02*
X151638000Y-78740000D01*
%TO.N,Net-(U1-AGND)*%
X115570000Y-102870000D02*
X115570000Y-103520840D01*
%TO.N,+5V*%
X116078000Y-85820000D02*
X114616000Y-87282000D01*
X114616000Y-87282000D02*
X114616000Y-103916000D01*
X114616000Y-103916000D02*
X115570000Y-104870000D01*
%TO.N,Net-(U1-AGND)*%
X127508000Y-105156000D02*
X127508000Y-102870000D01*
%TO.N,Net-(D1-A)*%
X139192000Y-108204000D02*
X154061143Y-108204000D01*
X154061143Y-92456000D02*
X152654000Y-92456000D01*
X154061143Y-108204000D02*
X155173000Y-107092143D01*
X155173000Y-107092143D02*
X155173000Y-93567857D01*
X155173000Y-93567857D02*
X154061143Y-92456000D01*
X152654000Y-92456000D02*
X151638000Y-91440000D01*
%TO.N,Net-(U1-SHDN{slash}~{CS})*%
X134620000Y-93218000D02*
X149077000Y-107675000D01*
X149077000Y-107675000D02*
X153183000Y-107675000D01*
X153183000Y-107675000D02*
X154178000Y-106680000D01*
%TO.N,Net-(U1-DOUT)*%
X134620000Y-88138000D02*
X150622000Y-104140000D01*
X150622000Y-104140000D02*
X151638000Y-104140000D01*
%TO.N,Net-(U1-AGND)*%
X116078000Y-83820000D02*
X116332000Y-83820000D01*
X116332000Y-83820000D02*
X116570000Y-84058000D01*
%TD*%
M02*
